/* XPM */
static char *IMG_20240809_WA00151723231332[] = {
/* columns rows colors chars-per-pixel */
"64 64 53 1 ",
"  c #000001",
". c #090500",
"X c #060900",
"o c #0B0A00",
"O c #010109",
"+ c #110D00",
"@ c #0E1100",
"# c #FFFF02",
"$ c #FEFE0C",
"% c #FCFC15",
"& c #F6FA1C",
"* c #FDFB1D",
"= c #FAFB22",
"- c #F7F92C",
"; c #FAFA2B",
": c #FBF734",
"> c #F6F934",
", c #FCFC34",
"< c #F5F63A",
"1 c #F8F639",
"2 c #F7FA3B",
"3 c #F9F939",
"4 c #F5F544",
"5 c #FAF645",
"6 c #F1F943",
"7 c #F4F44D",
"8 c #F8F54E",
"9 c #F5F849",
"0 c #F4F554",
"q c #F5F853",
"w c #F4F559",
"e c #EFEE6F",
"r c #F6EF60",
"t c #EFF464",
"y c #EDF26A",
"u c #F4F263",
"i c #EEED76",
"p c #EBEF7E",
"a c #F1EE7B",
"s c #EFF171",
"d c #EDF17C",
"f c #F1F173",
"g c #F1F179",
"h c #EEEA89",
"j c #F3EF83",
"k c #EBED93",
"l c #E7EBA1",
"z c #FFFFDE",
"x c #FFFFE4",
"c c #FFFFEC",
"v c #FEFEF4",
"b c #F7FFFA",
"n c #FEFEFE",
/* pixels */
"                                                                ",
"                                                                ",
"                                                                ",
"                                                                ",
"                                                                ",
"                                                                ",
"                                                                ",
"                                                                ",
"                                                                ",
"                                                                ",
"                                                                ",
"                                                                ",
"                                                                ",
"                                                                ",
"                                                                ",
"                                                                ",
"                             O                                  ",
"                       O     O                                  ",
"                      O     OO                                  ",
"                             O                                  ",
"                O                                               ",
"                 OO                                             ",
"                          O    O                                ",
"                    O .   OO                                    ",
"                         OOnnnnnn                               ",
"                         nnnnnnnnnnn                            ",
"                        nnnnnnnnnnnnnn    X  X                  ",
"                 X o   nnvO O nnnnnnnnn                         ",
"                 .oXXXnnnvnnnnnnnnnnnnnn                        ",
"                ..ddl vnnnnnbnnnnnnnnnnnnO                      ",
"                .ouyX vnnnnnnnnnnnn   nnnnn                     ",
"                 ke@Xnnnnnnv  vvnnnnn nnnnn                     ",
"O     O  .      Xlk.cnnnnnnXoo.. nnnn Onnnnn      O O     O     ",
"      OO  .      X znnnnnbXXirao.Xvnnn  nnnv.   XX.OO     OO    ",
"O    O       OO  vcvvnnnnv k4=;>wo.nnnn nbn +ooooo  O           ",
"    O        X OOnnvnnnnncXo;##%>e.nnnnnbnn.aw000s.. OO         ",
"                nnnnbnnnncXo;##%8o.nnnnnbbn.0***&2fo            ",
"       O O    X nnnnbnnnnv.k5**1e.xbnnnnnbv.1##$*<foX           ",
" .  O  O   O   nnnnnbnbnnn Xg00f. vnnnnnnv.h:##%4+o   X         ",
"O              nnnnnnnnnnnnX.oo.Xnnnnvnnnn.o1$#*w+.         O   ",
"O     O      .nnnnnnnnnnbvnbcxxcnbnnnnnnnnn.0=$*wo.             ",
"OO     O      nnnnnnnbnnnvnnnnnnnnnnnnnnnnn.@9-<g..O     OO O   ",
"            OOnnnnnnnnnnvnnnnnnbnnnnnnnbnnn Xjue.     O   .OO   ",
"     .    X   nnnnnnnnnnnnnnnnnnnnnnnbnvnnn XXXXX X O  ..       ",
"   O.    X  X nnvnnnnvn  nnnnnnnnnnnnnnnnnvvvcxxnn O            ",
"  O       O  ... vnnnnnn On   nbnnnnnnnnnnnnnnnnnnn   O         ",
"   O      O.ow<woXnnnnnnbOO nnnnnnnnnnnnnnnnnnnnnnnn           X",
"      O   .oq&$;y. nvnnnnnnnnnnnnv XXXX vnnnnnnnnnnnn         OO",
"  O      Xoe>$#*6dXnnnnnnnnnnnnnnc.a84wo nnnnnnnnnnnnn O       O",
" O O     X.a7>;<wo.nnnnnnnnnnnnvX.+8;;9a.nnbnnnnnvvvnn         O",
" .   OO   ....ok..vnnnnnnnnnnnn .f<-5rj. nnnnnnnnv X nn  OO     ",
"     O O  OnnvXX nnnnnnnnbnnnnn .i08+o.Xnnnnnnn ooXk. vn  O     ",
"   X     nnnnncvnnnnnbnnnnnnnnnvX oXXxcvnnnnnn .r:,9ioxn  O     ",
"X       nnnnnnnnnnnnvbnnnnnnnnnnnnnnnnnnnnnnnn .u1<0doxn        ",
"    X   nnnnnnnbnnnnbnnnnnnnvnnnnnnnvnnnnnnnnnn X.XXX c    O    ",
"    O  nvnnnnnnnnnnbnnnnnnnnnnnnnnnnnnnO Onnnnnnnnnnnnn         ",
"     Onnnnnnnnnnnnnnnnnnnnnnnnnnnnnvnnn nO nnnnnnnnnnn          ",
"O.O OOnnnnbnnnn    nn  OnnnnnnnnnnnnnnnnnbnnnnnnnnnnnOO         ",
". .  O nnnnn        O    OnnnnnOO O      X          OO          ",
" .   OO     OO  XO              OO  X      X   O      .        O",
"    X   X O    O O            X        O          X  X          ",
"            OO  O O     O        OX OOO..                       ",
"   X      O               X      X  O   .O                      ",
"    O  .   O      X     OO    OO       . OOX  OO X OO OOO       "
};
