/* XPM */
static char *IMG_20240809_WA00201723231331[] = {
/* columns rows colors chars-per-pixel */
"64 64 53 1 ",
"  c #010101",
". c #090500",
"X c #060900",
"o c #0B0A00",
"O c #010109",
"+ c #110D00",
"@ c #0E1100",
"# c #FFFF02",
"$ c #FEFE0C",
"% c #FCFC15",
"& c #F6FA1C",
"* c #FDFB1D",
"= c #FAFB22",
"- c #F7F92C",
"; c #FAFA2B",
": c #FBF734",
"> c #F6F934",
", c #FCFC34",
"< c #F5F63A",
"1 c #F8F639",
"2 c #F7FA3B",
"3 c #F9F939",
"4 c #F5F544",
"5 c #FAF645",
"6 c #F1F943",
"7 c #F4F44D",
"8 c #F8F54E",
"9 c #F5F849",
"0 c #F4F554",
"q c #F5F853",
"w c #F4F559",
"e c #EFEE6F",
"r c #F6EF60",
"t c #EFF464",
"y c #EDF26A",
"u c #F4F263",
"i c #EEED76",
"p c #EBEF7E",
"a c #F1EE7B",
"s c #EFF171",
"d c #EDF17C",
"f c #F1F173",
"g c #F1F179",
"h c #EEEA89",
"j c #F3EF83",
"k c #EBED93",
"l c #E7EBA1",
"z c #FFFFDE",
"x c #FFFFE4",
"c c #FFFFEC",
"v c #FEFEF4",
"b c #F7FFFA",
"n c #FEFEFE",
/* pixels */
"                                                                ",
"                   X                                            ",
"               n                                                ",
"               n                                                ",
"               n                                                ",
"              nnn                                               ",
"              nnn                                               ",
"             nnnnn                                              ",
"            Xnnnnn                                              ",
"            nnnnnnn                                             ",
"            nnnnnnn                              n              ",
"           nnnnnnnnn                             n X            ",
"          nnnnnnnnnnn                            n              ",
"           nnnnnnnnn                            nnn             ",
"            nnnnnnn                             nnn             ",
"             nnnnn                              nnn             ",
"             nnnnn    O                        nnnnn            ",
"              nnn     O      O                 nnnnn            ",
"              nnn  X        OO                nnnnnnn           ",
"              nnn    O       O               nnnnnnnnn          ",
"               n      .                      nnnnnnnnn          ",
"               nOOO   .                       nnnnnnn           ",
"          X    n           O                   nnnnn            ",
"               n    O     O                    nnnnn            ",
"         n                Onnnnnn               nnn             ",
"         n               nnnnnnnnnnn            nnn    n     X  ",
"        nnn             nnnnnnnnnnnnnn           n     n        ",
"   X   nnnnn     X o   nnn    nnnnnnnnn          n    nnn       ",
"        nnn      .oXXXnnnvnnnnnnnnnnnnnn         n   nnnnn      ",
"         n       .ddl vnvnnnbnnnnnnnnnnnn        n    nnn       ",
"         n      ..uyo vnnnnnnnnnnnn   nnnnn            n        ",
"              X .ks@Xnnnnnnn  vvnnnnn nnnnn            n        ",
"       O .X     Xlk.cnnnnnnXoo.. nnnn  nnvnn              O     ",
"      O .        X zvnnnnb Xirao.Xvnnn  nnnn.   X . O      O    ",
"O            OO  vcvnnnnnv k4=;>wo.nnnn bnn +ooooo O O          ",
"    O        X   nnvnnnnncXo;##%>i.nnnnnbnn.aw00qf.. OO         ",
"                nnnnbnnnncXo;##%8o nnnnnbbn.0***&2fo            ",
"       O        nnnnnnnnnvXh5**1f.xnnnnnnbv.1##$*<foX           ",
" .             nnnnnnbnnnn .g00f. vnnnnnnv.h:##%4+o             ",
"      OO  O    nnnnnnbnnbnnX.oo.Xnnnvvnnnn..1$#*w+.    X        ",
"O      O      nnnnnnnnnnbbnbcxxcnbnnnnnnnnn.w=$*wo.X        OO  ",
"OO    O       nnnnnnnvnbnvnnnnnnnnnnnnnnnnn.@9;1a..   O    O    ",
"          O  Onnnnnnnnnnvnnnnnnbnnnnnnnbnnn Xpue.    O          ",
"     .    X   nnnnnnnnnnnnnnnnnnnnnnnbnvnnn XXXXX O      .      ",
"     .      X nnnnnnnnn  nnnnnnnvnnnnnnnnnnvvcxxnn      X       ",
"  OO         ... cnnnnnn  n   nbnnnnnnnnnnvnnnnnnnn             ",
"           .ow5wo nnnnnnnO  nnnnnnnnnnnnnnnnnnnnnnnn            ",
"          .oq&$=yo nvnnnnnnnnnnnnv XXXX vnnnnnnnnnnnn         O ",
"  O      Xoi-$#%6d.nnnnnnnnbnnnnnc.a84wo nnnnnnnnnnnnn         O",
"  OO     X.aq>,<wo.nnnnnnnnnnnnvX.+8;;9a.nnnnnnnnvvvnn          ",
"       O  ....ok. vnnnnnnnnnnnn .f<-5rj. nnbnnnnnv X nn   OO    ",
".   O O    nnvXX.nnnnnnnnnnnnnn .i08+o.Xnnnnnnn ooXk. vn  O     ",
"         nnnnncbnnnnnbnnnnnnnnnvX oXXxcvnnnbnn .r:,9ioxn  O     ",
"     X  nnnnnnnnnnnnbbnnnnnnvnnnnnnnnnnnnnnnnn .u1<0doxn        ",
"   X    nnnnnnnvnbnnvnnnnnnnnnnnnnnnvnnnnnnnnnn XX.XX c         ",
"       nvnnnnnnnnnnnnbnnnnnnnnnnnnnnnnnO  nnnnnnnnnnnnn         ",
"     Onnnnnnnnnnnnnnnnnnnnnnnnnnnnnnnnn nO nnnnnnnnnnn          ",
"O.  O nnnvbnnnn    nn   nnnnnnnnnnnnvnnnnbnnbnnnnnnnnO          ",
". .  O nnnnn              nnnnn   O      X           O          ",
" .   OO     O                 X OO  X      X          .         ",
"           O   O O                 O  O           X             ",
"            OO  O O    XO       X O  OO. .   X                  ",
"   X  .                  O              O.    O     O  O        ",
"         X  O   X       O     O        . O         O  O         "
};
