/* XPM */
static char *IMG_20240809_WA00191723231331[] = {
/* columns rows colors chars-per-pixel */
"64 64 139 2 ",
"   c #010101",
".  c #0A0102",
"X  c #030801",
"o  c #080806",
"O  c #030209",
"+  c #09030A",
"@  c #140000",
"#  c #1B0001",
"$  c #12010B",
"%  c #1F0609",
"&  c #240101",
"*  c #2C0000",
"=  c #22030B",
"-  c #210909",
";  c #320001",
":  c #3B0001",
">  c #430000",
",  c #4C0201",
"<  c #440904",
"1  c #4D0709",
"2  c #450B09",
"3  c #4C0C0D",
"4  c #540302",
"5  c #5B0102",
"6  c #550009",
"7  c #580009",
"8  c #530A0B",
"9  c #630000",
"0  c #6A0000",
"q  c #6B0D06",
"w  c #6C0609",
"e  c #6E0A08",
"r  c #730402",
"t  c #7D0402",
"y  c #7A0A04",
"u  c #72030B",
"i  c #730C09",
"p  c #760B13",
"a  c #830602",
"s  c #8C0000",
"d  c #A30000",
"f  c #AA0000",
"g  c #AE1817",
"h  c #AC1F1C",
"j  c #BC1512",
"k  c #B51B15",
"l  c #BA1D14",
"z  c #B6161E",
"x  c #BE161D",
"c  c #B41E1C",
"v  c #BB1D1A",
"b  c #A4241C",
"n  c #AD231D",
"m  c #B72113",
"M  c #B4221D",
"N  c #BC221C",
"B  c #B41D25",
"V  c #BD1C22",
"C  c #B51D2A",
"Z  c #8B2D2E",
"A  c #9E2522",
"S  c #992822",
"D  c #9F252A",
"F  c #962B29",
"G  c #81332F",
"H  c #8F312F",
"J  c #A42623",
"K  c #AE2423",
"L  c #A22823",
"P  c #AC2924",
"I  c #AB2428",
"U  c #A5292A",
"Y  c #AA2F28",
"T  c #B12120",
"R  c #BB2423",
"E  c #A33029",
"W  c #AA2E30",
"Q  c #D90C05",
"!  c #D40E0B",
"~  c #DD0B0B",
"^  c #CC110F",
"/  c #DB1107",
"(  c #D5130D",
")  c #DD110B",
"_  c #CF0E11",
"`  c #D70E16",
"'  c #DE0C10",
"]  c #C41514",
"[  c #CC1413",
"{  c #C31A15",
"}  c #CE1815",
"|  c #C0171A",
" . c #CD1619",
".. c #C41A1A",
"X. c #C9191D",
"o. c #D21412",
"O. c #DD1414",
"+. c #D11A14",
"@. c #D51719",
"#. c #D41C1E",
"$. c #D9181D",
"%. c #E60504",
"&. c #ED0403",
"*. c #E40C05",
"=. c #EC0A04",
"-. c #E7070F",
";. c #EB0709",
":. c #E30C0C",
">. c #EB0B0B",
",. c #F50302",
"<. c #FC0102",
"1. c #F30A01",
"2. c #FE0803",
"3. c #F40509",
"4. c #FD020A",
"5. c #F00B0C",
"6. c #FF0A0D",
"7. c #E01107",
"8. c #E4110D",
"9. c #E91309",
"0. c #E40C13",
"q. c #EC0B13",
"w. c #E90D19",
"e. c #F00911",
"r. c #E11214",
"t. c #E3121C",
"y. c #F11111",
"u. c #CB211C",
"i. c #C42027",
"p. c #FFC4C7",
"a. c #FFDCDA",
"s. c #FFDFE0",
"d. c #FFE0E0",
"f. c #FFE6EB",
"g. c #FEEDEB",
"h. c #FFF5ED",
"j. c #FFFCF4",
"k. c #FFF5F8",
"l. c #FEFDFC",
/* pixels */
"                                                                                                                                ",
"                                                                                                                                ",
"                                                                                                                                ",
"                                                                                                                                ",
"                                                                                                                                ",
"                                                                                                                                ",
"                                                                                                                                ",
"                                                                                                                                ",
"                                                                                                                                ",
"                                                                                                                                ",
"                                                                                                                                ",
"                                                                                                                                ",
"                                                                                                                                ",
"                                                                                                                                ",
"                                                                                                                                ",
"                                                                                                                                ",
"O                 O   .           o         X   o             O O                       O   O                                   ",
"O O             X O O O .       o   O o       X   . .     X     . .         . O X         O                                     ",
"    .       X       O       O O     O     o X       O . O O O +   +     O     O       O                                         ",
"    .   .   . .       O     O     O O + o         O       O O O O         O         O   O                                       ",
"        O O     X X     O       O +   X     + O O     O O   X   +   o       + O   O         o                                   ",
"          X         O O   X               . # * * * * ; * * * # @ . . X     X O O         O   .                                 ",
"                    O O     X       X     @ i M { +.[ ( [ X.h y 5 2 @             X           o                                 ",
"        . .     O O O   X         o . @ & > { *.1.<.<.2.<.&.O.] M S ; # X   X                                                   ",
"      + .       O +   O       .     = > C ` ;.,.,.<.<.<.,.3.;.:.:.( N e #   O . . .                                             ",
"      O     X   O .     o   + O   @ : U t.4.<.<.<.<.<.<.<.3.<.<.2.3.8.m : # $ O . .       X                                     ",
"    O O           X       . O O O # w { %.<.,.<.<.<.<.<.<.4.4.<.<.,.&.) R w #     . . o     X                                   ",
"    .         X     X   . + O @ & : l / &.<.6.<.<.<.<.<.<.<.<.<.,.<.2.,.Q N : @ .             O                                 ",
"    O O           X X   O   - : K ( :.&.2.<.<.<.<.4.4.<.<.<.<.,.2.,.4.3.&.7.m q @ +   O                                         ",
"          . . . X     O O @ : b / 1.,.2.,.,.<.2.4.<.4.<.<.<.<.,.,.<.4.4.2.&.Q M * O O     X .                                   ",
"            O   X   + O O & N *.,.<.4.4.<.2.<.<.<.<.<.<.<.<.<.<.<.<.<.<.<.2.1.[ , # . +     X                                   ",
"          O .       O O . : o.<.<.<.4.4.<.<.<.,.<.<.<.<.<.<.<.<.<.<.<.4.<.,.4.' A > . O   .                                     ",
"    O O O O .   X     @ < S 0.4.<.<.<.<.<.<.<.,.2.4.<.<.<.<.<.<.<.<.<.<.<.<.,.>.v i #       .       .   o                   X   ",
"X     O O O O X .     # 9 u.%.;.O.[ o.$.o.! 7.=.3.4.<.<.,.1.:.` @.( ( 8.,.<.2.;.) B # O       o     .       O                 . ",
"    O           . + = > ..;.3.O.s.* ; ; * > N / &.4.<.<.,.) L a.* ; , I :.<.<.,.3.X.*   +   . .             O O O           O . ",
"                O @ ; F ) <.4._ g.l.l..   # t { :.5.:.q.:.{ a.g.    % > [ ,.<.4.<.o.: @ .           X       O O O O O       O O ",
"O     X   X   X   @ < J 7.<.<.o.* l.l.O   @ 9 R ] +.z z #.g h.l.l.  . * g 8.%.4.,.Q L < #     +             .   O     O   O     ",
"O         X       @ 5 N *.<.<.+.: O     o @ 8 U { d s s f i.& .   X   # r [ q.4.<.9.l 9 @   O O         . .         O   O       ",
"O O               # r o.;.<.2.o.> % . . l.j.& 5 o.=.>.:.%.+., % .   l.k.5 B w.4.<.%.+.a # +             . .       . O           ",
"O O           X   # R ~ 3.<.,.' J > & # h.h.d.D ~ 2.,.<.<.~ I > & @ k.f.p.V -.4.2.,.*.v : @ O         o O         . . X     X   ",
"    o O   .       & X.3.,.<.2.&.0...0 4 4 5 a | -.4.,.,.<.1.:...9 4 7 r [ ;.1.<.<.3.&./ N q # O O   O     X X                   ",
"    O   + .   . O *  .<.4.,.2.<.<.y.j n K c  .r.3.3.,.,.<.<.<.=.{ T B ] >.<.<.<.<.<.2.%./ N : # $ + + O X               O     X ",
".   X O .   .     * [ 2.<.4.<.<.,.<.>.:.:.-.q.&.3.2.,.<.<.<.<.<.%.:.*.>.,.<.<.2.4.<.,.<.3.~ V r : & .         .       O O O     ",
". .     + . . . # : ( <.<.4.<.<.<.<.<.<.<.<.4.4.<.<.<.<.<.<.<.<.4.<.<.<.,.,.<.<.<.<.4.,.<.3.0.X.Y , * # X O .       O O O O   . ",
"    X X   o = : u i.>.<.<.4.<.<.<.<.<.<.2.<.4.4.<.<.<.<.<.<.4.4.4.<.<.<.,.,.<.<.<.<.<.6.<.<.&.*.Q +.v p #   O O O   O O   X     ",
"o     X + . * Z z ' &.,.3.<.<.<.<.<.2.<.<.<.<.<.<.<.4.4.4.<.3.4.4.4.<.<.3.2.<.<.<.<.<.,.4.,.2.<.<.<.:.x > & @ .   X O           ",
"  O O   + # 8 b O.2.,.4.,.2.<.<.<.<.<.<.<.<.2.<.<.<.<.4.<.<.<.<.<.<.<.<.<.<.<.<.<.<.<.<.4.,.<.<.<.4.,.>.O.v , - X       .       ",
"  O     + @ 4 M *.<.<.<.,.,.4.<.4.<.,.<.<.<.<.,.<.<.<.<.<.<.<.<.<.<.<.<.<.,.<.<.2.,.2.<.4.4.<.<.<.<.<.,.<.:.P > .       .       ",
"          # 5 v :.<.<.2.4.3.<.<.<.<.<.<.<.<.<.<.<.<.<.<.<.<.<.<.<.<.<.<.<.<.<.<.<.<.<.<.<.<.<.<.<.<.<.<.<.>.] y #   O   o     O ",
"X     + o # 0 X.=.<.1.<.4.4.<.<.<.<.<.<.<.<.<.<.<.<.<.<.<.<.<.<.<.<.<.<.<.<.<.<.<.<.<.<.<.<.<.<.<.<.4.6.4.3.:.j > & # @ .       ",
"    O   % > ..q.1.2.<.<.<.<.<.<.<.<.<.<.<.<.<.<.<.<.<.<.<.<.<.<.<.<.<.<.<.<.<.<.<.<.<.<.<.<.<.<.,.,.,.<.4.<.3.>.( j 0 3 @ +     ",
"O   O $ & F r.<.<.1.<.,.<.<.<.<.<.<.<.<.<.<.<.<.<.<.<.<.<.<.<.<.<.<.<.<.<.<.<.<.<.<.<.<.<.<.<.<.<.<.,.<.<.4.4.<.<.9.j U ; # o   ",
". O   . < J :.<.,.<.,.<.<.<.<.<.<.<.<.<.<.<.<.<.<.<.<.<.<.<.<.<.<.<.<.<.<.<.<.<.<.<.<.<.<.<.<.<.<.<.<.<.<.<.<.<.4.,.>.o.V w # o ",
". O o @ > Y ] 8.>.:.0.0.:.9.:.:.:.:.:.:.:.:.:.:.:.>.:.:.:.:.:.:.>.:.:.:.:.:.:.:.>.:.:.:.:.:.:.:.:.>.:.:.*.:.:.r.w.w.~ ( j W &   ",
"O O   . & p W R T B B B C K n T T T T T B T T T h T T T B K M K h K c K T T T K h K c K T T T T T h n K M n b K C B T n P H #   ",
"O     @ - * 3 8 4 4 7 6 6 4 5 4 4 4 4 4 4 4 4 4 4 4 4 4 5 4 4 4 5 5 4 4 4 4 4 4 5 5 4 4 4 4 4 4 5 4 4 4 , 4 , 4 7 6 5 5 5 2 .   ",
"  X   . . . @ . . @ @ @ $ $ @ @ @ @ @ @ @ @ @ @ @ @ @ @ @ @ @ @ @ @ @ @ @ @ @ @ @ @ @ @ @ @ @ @ @ @ @ @ . . @ # @ # # # # @     ",
"          o             O         O   O       O     O     O           O   O       O O   O   O       O               .           ",
"  X       .   X X X       O               O                         O                                 O o     X     .         O ",
"    .               X         +                 O   O                     O                       O O   O       . .             ",
"    O O     X   . . X X X     O                                                                 O   O   O O   O         X       ",
"    O           . .                                                                             .               O   O O   O     ",
"                                                                                                      O                       + ",
". O         . .                   O                       O                                         O     X   X   O           X "
};
