/* XPM */
static char *IMG_20240809_WA00171723231332[] = {
/* columns rows colors chars-per-pixel */
"64 64 53 1 ",
"  c #010101",
". c #090500",
"X c #060800",
"o c #0C0A00",
"O c #00000B",
"+ c #110C00",
"@ c #0A1000",
"# c #121000",
"$ c #FFFE02",
"% c #FEFE0B",
"& c #F6FB14",
"* c #FCFC15",
"= c #F7F91C",
"- c #FBFC1C",
"; c #F8F721",
": c #F6FA24",
"> c #FBFB23",
", c #F6F72D",
"< c #F9F72B",
"1 c #F6F92C",
"2 c #FAFA2E",
"3 c #F6F634",
"4 c #F8F536",
"5 c #F6F935",
"6 c #FBFA35",
"7 c #F6F63B",
"8 c #F9F63B",
"9 c #F6F83A",
"0 c #F9F93A",
"q c #EEF448",
"w c #F6F543",
"e c #FAF644",
"r c #F3F943",
"t c #FBFB44",
"y c #F4F44D",
"u c #F9F54D",
"i c #F5F94D",
"p c #EFF150",
"a c #F5F454",
"s c #F8F356",
"d c #F2F850",
"f c #F5F35A",
"g c #F9F45B",
"h c #F4EE64",
"j c #F3EF6C",
"k c #EFF561",
"l c #EEF26C",
"z c #F1F462",
"x c #F2F26B",
"c c #F1EF78",
"v c #EEF277",
"b c #F2F275",
"n c #F1F47B",
/* pixels */
"                        O   O      OO            O       ..     ",
"                           O      O                             ",
"                  O        O                                    ",
"                    O                 .     O        O          ",
"                 O                                  O           ",
"                                   O        O       O   X     . ",
"                                         O        OO            ",
"                O         X.XXXXXXXXXX.XXX. .                   ",
"                 O  O   XX@@y3787t9978789yooX X   O             ",
"                  X   XoXnkq&$%%$$$$$$$$$*7fvoX.          O     ",
"                    Xog061:&%$$$$$$$$$$$$%&>1i+.X          O    ",
"                   Xof-$$$$$$$$$$$$$$$$$$$$$$-ej.X X            ",
"                X  @q=%$$$$$$$$$$$$$$$$$$$$$$%=6ao...    OO     ",
"                  ok>$$$$$$$$%*--->**$$$$$$$$$$%>ao.  OOO       ",
"                 oa-%$$$%$$$$*rgaafe*$$$$$$$$$$$%>u+o           ",
"               .of-$$$$%-:<,0iooooXoy51>%$$$$$$$$%<ao           ",
"             XXou=*$$$$*exvXoXX X  XX.ox-$$$$$$$$$%6xX.         ",
"     O       Xof;$$$$%-toXXX      O  .Xog1*%%$$$$$$*7+.    OO  X",
"        .    oa:%$$$$;z.X. ..O       . .X+i=&$$$$$$%=i..        ",
"  O         oz:$$$$%>yo. .              .Xoy-$$$$%$$$,XX      O ",
"          .oa>&$$$$<h.X X   .     .    O  ..6$$$$$$$$*yo.       ",
"         ..n:$$$$%;u+.          .      X  ..u%$$$$$$$%:a. .   X ",
"       O ..g=$$$$>hoX     X     O .     O  Xa>%$%$$$%$%4o.      ",
"         X+w*$$$$2o.X          .         O .+r-$$%$$$$$;zoX     ",
"       . Xa-%$$$$5o.   O                   Xol:$$$$$$$$*>aX     ",
"         o5$%$$%&aX               O       O  o0%$$$$$$$$$5oX    ",
"O       Xl:$$%$=toX          O          .    Xf>%$$$$$$$$>xo    ",
"OO      @f-$$$$>lo         OO   .  O       X X@0*$$$$$%$$*9oX  .",
"  O    .of-$$$$,o            OO .             oi*$$$$$$$$%-eo   ",
"       .oe*$$$$9o  . O X   ..         .OO    .Xj<$$$$$$$$$$>xoX ",
"       Xa-%$$$$9X  .. O                ..    ..o0$$$%$$$$$$*eoX ",
"       X0$$$$$*aX  O                           X7$$$$$$$$$$%>ao ",
"       X7$$$$*eo                               X8$$$$$$$$%$$%,+o",
" X     o8$$$$-goX                              X0$$$$$$%$$$$$*es",
"O      o4$$$$-p@                               X9$$$$$$$$$$$$%*;",
"     XXc>$$$$=kX.                              Xw%%$$$$$$$$$$$$$",
"   .  of>$$$$:nX                               Xf:*$$$$$$$$$$$$$",
"  .  X#a=$$$$1oX                                +8*$$$$$$$$$$$$$",
"      .g>$$$$6X.                               .ou*$$$$$$$$$$$$$",
" .   .+g<$$$$0X                                .os-$$$$$$$$$$$$$",
"      of>$$$$4.                                Xoa=$$$$$$$$$$$$$",
"     .of>$$$$0X                                 og=$$$$$$$$$$$$$",
"O    Xos=$$$$8..                                og-$$$$$$%$$%%$$",
"O.   Xo7=$$$$8o                                .of-$$$$$%$$$$$%$",
"OOO  Xy&$$$$$0X                                 of-$$$$$$%$$$$$$",
"  .  o5$$$$%*dX                                .os:$$$$$$$$%$$$$",
"     X0$$$$-e+X                                Xoa-$$$$$$$$$$$$$",
"     o4$$%$-g+                                  oa=$$$$$$$$$$$$$",
"     X0$$$$-so                                 .oa-$$$$$%$$$$$$%",
"     o4$$$$-foX                                X+a=$$$$$%$$$$$$$",
"     X4$%%$-fo.                                 of=$$$$$$$$$$$$$",
"     X0$$$$>fX.                                 .f:$$$$$$$$$$$$$",
"     X9$$$$>s+.                                .+f-$$$$$$$$$$$$$",
"     X9$$$$>g.X                                .+w-$$$$$$$$$$$$$",
"     o9$$$$;s..                                .+6*$$$$$$$$$$$$$",
" O   X9$$$$*e+X                                Xf-%$%$%$$$$$$$$$",
"     X9$$$$$-aX                                Xy%$$%$$$$$$$$$$$",
" O . Xd&%$$$$9X                                X9$$$$$$$$$$$$$$$",
"     Xot*$$$$9X                                X9$$$$$$$$$$$$$$$",
"     .oy-$$$$9X                                X0$$$$$$$$$$$$$$$",
"     Xog;$$$$9X                                X0$$$$$$$$$$$$$$$",
"   O Xog>$$$$9X                                X0$$$$$$$$$$$$$$$",
" . O  os-$$$$0X                                X8$$$$$$$$$$$$$$$",
"  O   oa-$%%$0X                                X8$$$$$%%%$$$$$$$"
};
