/* XPM */
static char *IMG_20240809_WA00181723231332[] = {
/* columns rows colors chars-per-pixel */
"64 64 83 1 ",
"  c #020101",
". c #090500",
"X c #060900",
"o c #0B0B00",
"O c #030109",
"+ c #110700",
"@ c #120D00",
"# c #0D1000",
"$ c #121100",
"% c #FEFE02",
"& c #FDFD0B",
"* c #FAF712",
"= c #F5FD14",
"- c #FDFC14",
"; c #FCF61D",
": c #F6FB1D",
"> c #FCFB1C",
", c #FCF521",
"< c #F5FA23",
"1 c #FCFB23",
"2 c #F9F72A",
"3 c #F6F92A",
"4 c #FBFB2B",
"5 c #F6F734",
"6 c #FAF734",
"7 c #F6F934",
"8 c #FAFA33",
"9 c #F6F53B",
"0 c #FAF63C",
"q c #F6F83A",
"w c #F9F93A",
"e c #EDF446",
"r c #EFF34B",
"t c #F6F543",
"y c #F9F543",
"u c #F4F942",
"i c #FAFA44",
"p c #F4F44C",
"a c #F8F64C",
"s c #F5F94C",
"d c #F6EF56",
"f c #EFF45C",
"g c #F4F553",
"h c #F9F453",
"j c #F4F851",
"k c #FDF852",
"l c #F4F35B",
"z c #F9F358",
"x c #EDEF6F",
"c c #F1EF61",
"v c #F2EE6C",
"b c #EFF363",
"n c #EFF16B",
"m c #F3F362",
"M c #F3F16C",
"N c #EEEF74",
"B c #EEED7C",
"V c #F1EE74",
"C c #F1EE7A",
"Z c #EFF172",
"A c #EDF07D",
"S c #F2F174",
"D c #F1F27B",
"F c #EDEC85",
"G c #ECE78B",
"H c #E7EC8B",
"J c #ECEC8D",
"K c #F1EE84",
"L c #F1EC8C",
"P c #EDF185",
"I c #F2F083",
"U c #E9E695",
"Y c #E7EB97",
"T c #ECEB93",
"R c #E7EB9B",
"E c #EBEB9B",
"W c #F1EC93",
"Q c #F1EC9B",
"! c #EFF093",
"~ c #F0F090",
"^ c #EBE7A0",
"/ c #EBEBA3",
"( c #EBEAA9",
/* pixels */
"                         O  O     OOO             O             ",
"                                                                ",
"                   O      O                          O          ",
"                 O    O                    O                    ",
"                                                    O           ",
"                O                           O        O          ",
"                                                   O           O",
"                             X.X.X.X.OXX..        O             ",
"                    O   XXX#p9909u9q909w9p#.. X   O             ",
"                  O  O..oDbe=%&%%%%%%%%%%-qlSo..          O     ",
"                    .ogw83<=&%%%%%%%%%%%%&-<3s@.           O    ",
"                  X ol>%%%%%%%%%%%%%%%%%%%%%%:yv..              ",
"                  X#e:&%%%%%%%%%%%%%%%%%%%%%%&>8g@..    O       ",
"                  .b1%%%%%%%%&->>>>>-%%%%%%%%%%&<g+.   O O      ",
"                Xog>&%%%&%%%%-thggzi-%%%%%%%%%%%&1do.    O      ",
"                .l1%%%%&><12qsoooo.oj73<&%%%%%%%%&1g.           ",
"              .Xg>&%%%%-amn#XX.  . .XXom>%%%%%%%%%&4M..         ",
"  O         . Xl<%&%%&;y$.X         O .oz4-&%%%%%%%*y@.  O      ",
"      O      og4-%%&%1c+.      O O      .oa1&%%%%%%%-s. O   O   ",
"      O    .om<%%%%&>ao       O     O    .op:&-&&%%%%7o      O  ",
"O         ..g>&%%%%1lXX  O    O           .o7&11&%%%&>so       O",
"          .A2%%%->19oXXX                   ou4t$4>-%&&<g.     OO",
"         ..m>%%-0hgmnPXooo           O   Xo+mmP#$y-%%%&7o.    .O",
"         .@9>&>8$oo##XJJTE. XX . ..  . .X/TLoo...m1%%%%1lo.     ",
"         .j-&-t#ooX..  . XEP~JTQoo.#oTTE/X.  .+ooS2%%%%&1lX     ",
"         o8%%>loDH.       .ooo+oVZVCIooXX    .LKo.4%%%%%%7o.    ",
"        .v4%%>g$ST        ....o#ZSSF..X    X .G~..5%%%%%%1M..   ",
"O     O .z>%%>gooo  O    . ...RHoooo.         oo.o2%%%%%%-y@    ",
"        oz>%%;$@o.       X@+L^X X        O    Xo#e>%%%%%%&>ao   ",
"        #i-%%>yvYX.. .XXXQGLo.    O       .  .XJmq:=%%%%%%%4nX. ",
"       .j=%%%%>to/TJWo$MAo. .             .o!QoEDzw1&%%%%%%>io. ",
"       .q%%%%&-io.##oCMvKo         .  .  ./Too...+@g4:-&%%%&>jX ",
"    O  Xw%%%%:u#.X##T.XX   O      X.o.WJJQ..   . X..Va61&%%%&2oo",
" X     X6%%%%=s#..EYX.          . .GBDo@##   O     .o@$8=%%%%-il",
"      Xo6%%%%-0$oE             XXHIK@$$#XXX     XJJo..@2-%%%%&>:",
"      XZ3&->,6ygmo.        . .X/J#ooTJJ~!R.X. X XJJo.ok>&%%%%%%%",
" O   .Xf<&1y@CMb#o. O     XXTT/X X   ... XEHL.X.XXXX#p1&%%%%%%%%",
"O    .og=-6$+oo#PE.   . ..EHoo..     .   OXooQ^..X og<&%%%%&%%%%",
"O   O ok>>y+o..X X^~W+o.HRX.. .  OO  ..   XX ../To$g1&%&%%%%%%%%",
"O    .oh11Mo@L/X ..ooLWJ##.   .        O     .o+@z91&%%%%%%%%%%%",
"      og>7oXgpPX.  . XXXFAJH~JoX O          .#@@@w>-%%%%%%%%%%%%",
" O    ol19XXlzX   X     .ooo#XT/.. XXX    ..EHTCziw4&%%%%%%%%%%%",
"     Xoz13o.X.          ... X  XRH~ooX. o.WUX  X@oXo3%%%%%%%%%%%",
"     .op-<lo..       .   . O   XX##SSP..TFo.X O CD.Xq%&%&%%%%%%%",
"     .h>&&<y@. O               X Xo#$oKGT..  O .ha..w%%%%%%%%%%%",
"     .0%%%%>aK..O . O            .EHJ~o.XX     .ml..5%&%%%%%%%%%",
"     .0%%%%-qlAH~...         ..oHE...  .   O     Xo$<%%%%%%%%%%%",
"O    .9%%%%>7##oo!RXX    ..  .EJo..   O        .XoMy=%%%%%%%%%%%",
"     X0%%%&>p#X  X./YH#X##oWT/..     O       ..#g61=&%%%%%%%%%%%",
"     .0%%%&1po    ..o#SNABKoo   O    O   .   .EZw>%%%%%%%%%%%%%%",
"     .q%%%%;h@.     ..oIW.. ..         X.ooWWEXX@y>%%%%%%%%%%%%%",
"     Xq%%%%1z+  .  XX/Qo...O.    X . XX/TTLooX  .Vt1>&%%%%%%%%%%",
"    ..q%%%%>z+   XoT/X...     XXooooHT/.... .    XoMt1-%%%%%%%%%",
"     .q%%%%>d+XX./YX..   O .  oJDMZS#oo..        X.o$7=%%%%%%%%%",
"     X9&%%%>g#ooEXX         .XoAZSSZ#o.  X     .#nIo@a-%%%%%%%%%",
"     Xq%&%%1l#JYX        ..  (R#oooo~Y.        .ngV@$p=%%%%%%%%%",
" O   X0%%%%1N.X        XXoHE/.X .    oET...     KSL+$7=%%%&%%%%%",
"OO   .a*%&1ioo.. . .. X/RTo...    OOO .oJEX   ..o++@u<%%%%%%%%%%",
"  O  .oi-1m#itZX  ..oW/XXXX            X..EW~@oo.oo$2&%&%%%%%%%%",
"   O .og>2$orymoX.ETQ...                  ..oGLJP#bu-%%%%%%%&%%&",
"    ..+z>1co.o@@PE.X                      .. . oj<<>&%%%%%%%%&%%",
"O O O..z1>t$.oQWo.   .              OO    . O  .q%%%%%%%%%%%%%%%",
"      of;%-17l.            O  O    O     O    OX0%%&%%%%%%%%%%%%",
"  .  XXg:%%%%7.   OO             O  O      X   .6%%%%%%%%%%%%%%%"
};
