/* XPM */
static char *IMG_20240809_WA00131723231332[] = {
/* columns rows colors chars-per-pixel */
"64 64 69 1 ",
"  c black",
". c #010000",
"X c #000100",
"o c #010100",
"O c #010101",
"+ c #030000",
"@ c #020100",
"# c #000200",
"$ c #010200",
"% c #000201",
"& c #020200",
"* c #030200",
"= c #030301",
"- c #000002",
"; c #010002",
": c #010103",
"> c #030002",
", c #030102",
"< c #020003",
"1 c #020202",
"2 c gray1",
"3 c #040000",
"4 c #060200",
"5 c #040002",
"6 c #030600",
"7 c #020403",
"8 c #050400",
"9 c #040700",
"0 c #000004",
"q c #010004",
"w c #000104",
"e c #000005",
"r c #010005",
"t c #030104",
"y c #020005",
"u c #040207",
"i c #040404",
"p c gray2",
"a c #070A00",
"s c #E8F569",
"d c #E9F66A",
"f c #EBF86C",
"g c #FBFBFB",
"h c #FBFDF8",
"j c #FFFDFA",
"k c #FFFCFB",
"l c #FDFFFA",
"z c #FEFFFA",
"x c #FEFFFB",
"c c #FFFFFB",
"v c #FEF9FD",
"b c #FDFBFC",
"n c #FBFFFC",
"m c gray99",
"M c #FDFDFD",
"N c #FCFEFD",
"B c #FEFEFC",
"V c #FFFEFD",
"C c #FFFFFD",
"Z c #FCFCFE",
"A c #FFFDFE",
"S c #FEFCFF",
"D c #FFFCFF",
"F c #FFFDFF",
"G c #FDFFFE",
"H c #FCFFFF",
"J c #FEFEFE",
"K c #FFFEFF",
"L c white",
/* pixels */
"                                                                ",
"                                                                ",
"                                                                ",
"                                                                ",
"                                                                ",
"                                                                ",
"                                                                ",
"                                                                ",
"                                                                ",
"                                                                ",
"                                                                ",
"                                                                ",
"                                                                ",
"                                                                ",
"                                                                ",
"                                               2                ",
"                          p       22  22  %   222               ",
"                              2   2   222%  5 22                ",
"                                 27 2 8 22                      ",
"                         p    p2u2    5 ee                      ",
"                                e22  %%%22222e22                ",
"                            LLLLLL55% %%22222222                ",
"                           LLLLhLhLL5  2222    22               ",
"                         LLLLLLLh88%   2                        ",
"               p     p   LLLLLLgL8fd%Lh  5    5                 ",
"          p             LLLLLLLLLaddaLLh5522                    ",
"             p    LLL   LLLLLLLLL58a5LLh  22                    ",
"           p     LLL   LLLLLLLbLbLLLbbLL  222                   ",
"         p      LLLL   LLgLLgLLLL  LLLbL   22 2                 ",
"            LL LLLL    LgLL           2    22 2                 ",
"           p L LLL     L    LLLLLLHHh 22%%    22                ",
"              LLL   p p  LLLLL  L  hL 22       2                ",
"              LLp L       LLLLLLLLLLL                           ",
"              LL  LL       LLLLLLLLL                            ",
"        p  p  LL   LL   LL   LLLLL                              ",
"            p  LL p  L LL  L LLLLL     p                        ",
"              pLLL     LL LLp LLLp                              ",
"           p    LL    LL pLL L     L   p                        ",
"         p   p   LL  LL  LL   gLLL L                            ",
"                      L LLL L LLLL L L                          ",
"                        LLL L LLL  L LL                         ",
"                    LLLLLLL L LLL L LLL                         ",
"                    gLLLLLL L LLL L LLL                         ",
"                 p   LLLLLL L LLLL  LL                          ",
"                     LLLLLL          Lp                         ",
"                      LLLLg  LL  LL                             ",
"                p       LLL LgLLLLg L                           ",
"                  p         LLLLLLLLL                           ",
"                         p LLLLLLLLL                            ",
"                           LLLL LLgL  p                         ",
"                                                                ",
"                           LLLp LLL p  p                        ",
"                                  p                             ",
"                         p    p        %                        ",
"                          p   p                                 ",
"                             p   p  p                           ",
"                                                                ",
"                                                                ",
"                                                                ",
"                                                                ",
"                                                                ",
"                                                                ",
"                                                                ",
"                                                                "
};
