/* XPM */
static char *IMG_20240809_WA00161723231332[] = {
/* columns rows colors chars-per-pixel */
"64 64 12 1 ",
"  c black",
". c #010101",
"X c #020202",
"o c gray1",
"O c #040404",
"+ c gray2",
"@ c gray98",
"# c #FBFBFB",
"$ c gray99",
"% c #FDFDFD",
"& c #FEFEFE",
"* c white",
/* pixels */
"      +    +                                        +           ",
"                         +    +            +      ++            ",
"                                   +       *********            ",
"  +       +   *************          + +  *#****#****      +    ",
"**  +  **#*#***#*#****#***#****#*     **#*#**#*****#****#*******",
"**     *********************#****     ********#***#***#*********",
"**    +*******************#***#**    +*******#**#***************",
"**     ****#*********************     ********#******#**********",
"**     ****#****#****************     ************************#*",
"**     *#*#***#*****#************     ******#*************#***#*",
"** +   **#***********************     *****#*****************#**",
"**     ************##**#**#******+    ***#***##**********#******",
"**     **************************    +**************************",
"           + **#**#****                    ***************      ",
" +            ********                +     ************* +     ",
"     +                                                          ",
"                                                                ",
"             +                                                  ",
"*********     *****************************  +  ****************",
"*********+    *****************************   + ****************",
"*********     *****************************     ****************",
"*********+    ***************************#*     ****************",
"*********     ***************************** +  +****************",
"*********     *****************************     ****************",
"*********     ************************#****     ******#*********",
"**#*****#     ********************#********  +  **************#*",
"*********     *****#*****************#*****     #***************",
"            +           ***#*******#**      +                   ",
"  +            +               +  ***    ++       +       +     ",
"         +  +                                                   ",
"             **********            + +        *#******          ",
"   ******** ************                     **********         ",
"******************************     ********************     ****",
"******************************     ********************     ****",
"******************************     ********************     ****",
"******************************     ********************     ****",
"******************************     ********************     ****",
"******************************     ********************     ****",
"******************************     ********************     ****",
"******************************     ********************     ****",
"*******#*****#****************     **************#*****     ****",
"#*#*****#*********************     ********************     ****",
"**********#*******************     ***************#****     ****",
"#***#*******#**#******#*****#*     *#******#****#******     #***",
"*******#*****  ++        +       +             +    +           ",
" ****#*****#                        +             +        +    ",
"     +    +                  +*******                    +      ",
"            +            **************                       + ",
"                        ****************      +   +             ",
"**************    +****************************     ************",
"**************     ***#********************#**# +   **#*********",
"**************     ****************************     ************",
"**********#*#*    +**#*********************#**#     ************",
"********#*****     *#**************************     ************",
"*********#****     **************************** +   ***#********",
"**************     ***********************#****    +************",
"************#*     ******#**#******************     *********#**",
"**************     ***************#***#***#*#**  +  **#*********",
"**************     *****************#**********     *******#****",
"                       **#*##****##****#              ***##*    ",
"       +  +      +   ++  **********      +    +  +     **** +   ",
"        +     +                            +               +    ",
"                         +   +   +   +          +   +    +    + ",
"             +                                                  "
};
